# Blender v2.93.1 OBJ File: 'sword_short.blend'
# www.blender.org
mtllib sword_short.mtl
o Cylinder
v 0.000000 -1.000000 -0.992291
v -0.000000 3.330870 -1.066968
v 0.705330 -1.000000 -0.496146
v 0.758410 3.330870 -0.533484
v 0.705330 -1.000000 0.496146
v 0.758410 3.330870 0.533484
v -0.000000 -1.000000 0.992291
v -0.000000 3.330870 1.066968
v -0.705330 -1.000000 0.496146
v -0.758410 3.330870 0.533484
v -0.705330 -1.000000 -0.496146
v -0.758410 3.330870 -0.533484
v 0.729144 7.105938 -0.512897
v -0.000000 7.105938 -1.025795
v 0.729144 7.105938 0.512897
v -0.000000 7.105938 1.025795
v -0.729145 7.105938 0.512897
v -0.729145 7.105938 -0.512897
vt 1.000000 0.500000
vt 1.000000 1.000000
vt 0.833333 1.000000
vt 0.833333 0.500000
vt 0.666667 1.000000
vt 0.666667 0.500000
vt 0.500000 1.000000
vt 0.500000 0.500000
vt 0.333333 1.000000
vt 0.333333 0.500000
vt 0.500000 1.000000
vt 0.333333 1.000000
vt 0.166667 1.000000
vt 0.166667 0.500000
vt -0.000000 1.000000
vt -0.000000 0.500000
vt 0.750000 0.490000
vt 0.957846 0.370000
vt 0.957846 0.130000
vt 0.750000 0.010000
vt 0.542154 0.130000
vt 0.542154 0.370000
vt 0.457846 0.370000
vt 0.250000 0.490000
vt 0.042154 0.370000
vt 0.042154 0.130000
vt 0.250000 0.010000
vt 0.457846 0.130000
vt 0.833333 1.000000
vt 0.666667 1.000000
vt 0.166667 1.000000
vt 1.000000 1.000000
vt -0.000000 1.000000
vn 0.5753 -0.0141 -0.8178
vn 0.9999 -0.0123 0.0000
vn 0.5753 -0.0141 0.8178
vn -0.5753 -0.0141 0.8178
vn -0.5753 0.0089 0.8179
vn -0.9999 -0.0123 0.0000
vn -0.5753 -0.0141 -0.8178
vn 0.0000 -1.0000 0.0000
vn 0.0000 1.0000 0.0000
vn 1.0000 0.0078 0.0000
vn -1.0000 0.0078 0.0000
vn 0.5753 0.0089 -0.8179
vn 0.5753 0.0089 0.8179
vn -0.5753 0.0089 -0.8179
usemtl Material.002
s off
f 1/1/1 2/2/1 4/3/1 3/4/1
f 3/4/2 4/3/2 6/5/2 5/6/2
f 5/6/3 6/5/3 8/7/3 7/8/3
f 7/8/4 8/7/4 10/9/4 9/10/4
f 10/9/5 8/7/5 16/11/5 17/12/5
f 9/10/6 10/9/6 12/13/6 11/14/6
f 11/14/7 12/13/7 2/15/7 1/16/7
f 1/17/8 3/18/8 5/19/8 7/20/8 9/21/8 11/22/8
f 13/23/9 14/24/9 18/25/9 17/26/9 16/27/9 15/28/9
f 6/5/10 4/3/10 13/29/10 15/30/10
f 12/13/11 10/9/11 17/12/11 18/31/11
f 4/3/12 2/2/12 14/32/12 13/29/12
f 8/7/13 6/5/13 15/30/13 16/11/13
f 2/15/14 12/13/14 18/31/14 14/33/14
o Cube_Cube.002
v -1.000000 6.969172 1.000000
v -1.000000 8.341031 1.000000
v -1.000000 6.969172 -1.000000
v -1.000000 8.341031 -1.000000
v 1.000000 6.969172 1.000000
v 1.000000 8.341031 1.000000
v 1.000000 6.969172 -1.000000
v 1.000000 8.341031 -1.000000
v -0.468758 7.988982 -1.843508
v -0.468758 6.969172 -1.843508
v 0.468758 6.969172 -1.843508
v 0.468758 7.988982 -1.843508
v -0.468758 8.591381 -3.584948
v -0.468758 7.571571 -3.584948
v 0.468758 7.571571 -3.584948
v 0.468758 8.591381 -3.584948
v -0.621560 9.121819 -4.227897
v -0.621560 7.769580 -4.227897
v 0.621560 7.769580 -4.227897
v 0.621560 9.121819 -4.227897
v -0.436749 8.920785 -4.721181
v -0.436749 7.970614 -4.721181
v 0.436749 7.970614 -4.721181
v 0.436749 8.920785 -4.721181
v -1.000000 6.969172 -1.000000
v -1.000000 8.341031 -1.000000
v -1.000000 6.969172 1.000000
v -1.000000 8.341031 1.000000
v 1.000000 6.969172 -1.000000
v 1.000000 8.341031 -1.000000
v 1.000000 6.969172 1.000000
v 1.000000 8.341031 1.000000
v -0.468758 7.988982 1.843508
v -0.468758 6.969172 1.843508
v 0.468758 6.969172 1.843508
v 0.468758 7.988982 1.843508
v -0.468758 8.591381 3.584948
v -0.468758 7.571571 3.584948
v 0.468758 7.571571 3.584948
v 0.468758 8.591381 3.584948
v -0.621560 9.121819 4.227897
v -0.621560 7.769580 4.227897
v 0.621560 7.769580 4.227897
v 0.621560 9.121819 4.227897
v -0.436749 8.920785 4.721181
v -0.436749 7.970614 4.721181
v 0.436749 7.970614 4.721181
v 0.436749 8.920785 4.721181
v -1.000000 6.969172 0.000000
v -1.000000 8.762956 0.000000
v 1.000000 6.969172 0.000000
v 1.000000 8.762956 0.000000
vt 0.375000 0.125000
vt 0.625000 0.125000
vt 0.625000 0.250000
vt 0.375000 0.250000
vt 0.875000 0.500000
vt 0.625000 0.500000
vt 0.625000 0.500000
vt 0.875000 0.500000
vt 0.375000 0.625000
vt 0.625000 0.625000
vt 0.625000 0.750000
vt 0.375000 0.750000
vt 0.625000 1.000000
vt 0.375000 1.000000
vt 0.125000 0.625000
vt 0.125000 0.750000
vt 0.875000 0.625000
vt 0.875000 0.750000
vt 0.375000 0.500000
vt 0.125000 0.500000
vt 0.125000 0.500000
vt 0.375000 0.500000
vt 0.625000 0.250000
vt 0.375000 0.250000
vt 0.375000 0.500000
vt 0.125000 0.500000
vt 0.875000 0.500000
vt 0.625000 0.500000
vt 0.625000 0.500000
vt 0.875000 0.500000
vt 0.625000 0.250000
vt 0.375000 0.250000
vt 0.375000 0.500000
vt 0.375000 0.500000
vt 0.625000 0.500000
vt 0.625000 0.250000
vt 0.375000 0.250000
vt 0.125000 0.500000
vt 0.375000 0.250000
vt 0.625000 0.250000
vt 0.125000 0.500000
vt 0.875000 0.500000
vt 0.375000 0.000000
vt 0.625000 0.000000
vt 0.375000 0.250000
vt 0.625000 0.250000
vt 0.875000 0.500000
vt 0.875000 0.500000
vt 0.625000 0.500000
vt 0.625000 0.500000
vt 0.375000 0.750000
vt 0.625000 0.750000
vt 0.375000 1.000000
vt 0.625000 1.000000
vt 0.125000 0.750000
vt 0.875000 0.750000
vt 0.375000 0.500000
vt 0.375000 0.500000
vt 0.125000 0.500000
vt 0.125000 0.500000
vt 0.375000 0.250000
vt 0.625000 0.250000
vt 0.375000 0.500000
vt 0.125000 0.500000
vt 0.875000 0.500000
vt 0.875000 0.500000
vt 0.625000 0.500000
vt 0.625000 0.500000
vt 0.375000 0.250000
vt 0.625000 0.250000
vt 0.625000 0.500000
vt 0.375000 0.500000
vt 0.375000 0.500000
vt 0.375000 0.250000
vt 0.625000 0.250000
vt 0.125000 0.500000
vt 0.375000 0.250000
vt 0.625000 0.250000
vt 0.125000 0.500000
vt 0.875000 0.500000
vt 0.375000 0.000000
vt 0.625000 0.000000
vn -1.0000 0.0000 0.0000
vn 0.0000 0.9228 -0.3852
vn 1.0000 0.0000 0.0000
vn 0.0000 0.0000 1.0000
vn 0.0000 -1.0000 0.0000
vn 0.0000 0.9213 0.3887
vn 0.0000 -0.9451 -0.3269
vn -0.8462 0.0000 -0.5329
vn 0.8462 0.0000 -0.5329
vn 0.0000 0.7714 0.6364
vn 0.0000 0.9451 0.3269
vn 0.9364 0.0000 -0.3508
vn -0.9729 0.0000 0.2312
vn 0.9729 0.0000 0.2312
vn 0.0000 -0.9557 -0.2943
vn 0.0000 0.0000 -1.0000
vn 0.0000 -0.9260 -0.3774
vn 0.0000 0.9260 -0.3774
vn -0.9364 0.0000 -0.3508
vn 0.0000 0.9213 -0.3887
vn 0.0000 0.9228 0.3852
vn 0.0000 -0.9451 0.3269
vn -0.8462 0.0000 0.5329
vn 0.8462 0.0000 0.5329
vn 0.0000 0.7714 -0.6364
vn 0.0000 0.9451 -0.3269
vn 0.9364 0.0000 0.3508
vn -0.9729 0.0000 -0.2312
vn 0.9729 0.0000 -0.2312
vn 0.0000 -0.9557 0.2943
vn 0.0000 -0.9260 0.3774
vn 0.0000 0.9260 0.3774
vn -0.9364 0.0000 0.3508
usemtl Material.001
s off
f 67/34/15 68/35/15 22/36/15 21/37/15
f 22/38/16 26/39/16 30/40/16 27/41/16
f 69/42/17 70/43/17 24/44/17 23/45/17
f 23/45/18 24/44/18 20/46/18 19/47/18
f 67/48/19 69/42/19 23/45/19 19/49/19
f 70/43/20 68/50/20 20/51/20 24/44/20
f 29/52/21 28/53/21 32/54/21 33/55/21
f 21/37/22 22/36/22 27/56/22 28/57/22
f 26/39/23 25/58/23 29/52/23 30/40/23
f 25/58/19 21/59/19 28/53/19 29/52/19
f 31/60/24 34/61/24 38/62/24 35/63/24
f 27/41/25 30/40/25 34/61/25 31/60/25
f 28/57/15 27/56/15 31/64/15 32/65/15
f 30/40/17 29/52/17 33/55/17 34/61/17
f 38/62/26 37/66/26 41/67/26 42/68/26
f 32/65/27 31/64/27 35/69/27 36/70/27
f 34/61/28 33/55/28 37/66/28 38/62/28
f 33/55/29 32/54/29 36/71/29 37/66/29
f 40/72/30 39/73/30 42/68/30 41/67/30
f 37/66/31 36/71/31 40/74/31 41/67/31
f 35/63/32 38/62/32 42/68/32 39/75/32
f 36/70/33 35/69/33 39/73/33 40/72/33
f 26/39/34 22/38/34 68/50/34 70/43/34
f 21/59/19 25/58/19 69/42/19 67/48/19
f 25/58/17 26/39/17 70/43/17 69/42/17
f 19/76/15 20/77/15 68/35/15 67/34/15
f 67/34/15 45/78/15 46/79/15 68/35/15
f 46/80/35 51/81/35 54/82/35 50/83/35
f 69/42/17 47/84/17 48/85/17 70/43/17
f 47/84/30 43/86/30 44/87/30 48/85/30
f 67/48/19 43/88/19 47/84/19 69/42/19
f 70/43/34 48/85/34 44/89/34 68/50/34
f 53/90/36 57/91/36 56/92/36 52/93/36
f 45/78/37 52/94/37 51/95/37 46/79/37
f 50/83/38 54/82/38 53/90/38 49/96/38
f 49/96/19 53/90/19 52/93/19 45/97/19
f 55/98/39 59/99/39 62/100/39 58/101/39
f 51/81/40 55/98/40 58/101/40 54/82/40
f 52/94/15 56/102/15 55/103/15 51/95/15
f 54/82/17 58/101/17 57/91/17 53/90/17
f 62/100/41 66/104/41 65/105/41 61/106/41
f 56/102/42 60/107/42 59/108/42 55/103/42
f 58/101/43 62/100/43 61/106/43 57/91/43
f 57/91/44 61/106/44 60/109/44 56/92/44
f 64/110/18 65/105/18 66/104/18 63/111/18
f 61/106/45 65/105/45 64/112/45 60/109/45
f 59/99/46 63/113/46 66/104/46 62/100/46
f 60/107/47 64/110/47 63/111/47 59/108/47
f 50/83/20 70/43/20 68/50/20 46/80/20
f 45/97/19 67/48/19 69/42/19 49/96/19
f 49/96/17 69/42/17 70/43/17 50/83/17
f 43/114/15 67/34/15 68/35/15 44/115/15
o Cube.001_Cube.003
v 0.000000 7.347763 1.644220
v 0.000000 43.661133 0.842053
v 0.000000 7.347763 -1.644220
v 0.000000 43.661133 -0.842053
v 0.000000 7.347763 1.644220
v 0.000000 43.661133 0.842053
v 0.000000 7.347763 -1.644220
v 0.000000 43.661133 -0.842053
v -0.167367 7.347762 0.000000
v -0.167367 43.661140 0.000000
v 0.167367 7.347762 0.000000
v 0.167367 43.661140 0.000000
v 0.000000 48.008240 0.000000
v 0.000000 48.008240 0.000000
v 0.000000 48.008240 0.000000
v 0.000000 48.008240 0.000000
v 0.000000 48.008240 0.000000
v 0.000000 48.008240 0.000000
vt 0.375000 0.125000
vt 0.625000 0.125000
vt 0.625000 0.250000
vt 0.375000 0.250000
vt 0.625000 0.500000
vt 0.375000 0.500000
vt 0.375000 0.625000
vt 0.625000 0.625000
vt 0.625000 0.750000
vt 0.375000 0.750000
vt 0.625000 1.000000
vt 0.375000 1.000000
vt 0.125000 0.625000
vt 0.125000 0.750000
vt 0.625000 0.500000
vt 0.625000 0.625000
vt 0.625000 0.750000
vt 0.125000 0.500000
vt 0.375000 0.000000
vt 0.625000 0.000000
vt 0.875000 0.625000
vt 0.875000 0.750000
vt 0.875000 0.500000
vt 0.625000 0.000000
vt 0.625000 0.125000
vt 0.625000 0.250000
vt 0.625000 1.000000
vn -0.9911 0.0015 -0.1334
vn 0.0000 0.0000 1.0000
vn 0.9911 0.0015 0.1334
vn 0.0000 -1.0000 0.0000
vn 0.9801 0.0377 -0.1948
vn 0.9801 0.0377 0.1948
vn 0.9911 0.0015 -0.1334
vn -0.9911 0.0015 0.1334
vn -0.9801 0.0377 0.1948
vn -0.9801 0.0377 -0.1948
usemtl Material
s off
f 79/116/48 80/117/48 74/118/48 73/119/48
f 73/119/49 74/118/49 78/120/49 77/121/49
f 81/122/50 82/123/50 76/124/50 75/125/50
f 75/125/49 76/124/49 72/126/49 71/127/49
f 79/128/51 81/122/51 75/125/51 71/129/51
f 82/123/52 78/120/52 85/130/52 86/131/52
f 76/124/53 82/123/53 86/131/53 87/132/53
f 73/133/51 77/121/51 81/122/51 79/128/51
f 77/121/54 78/120/54 82/123/54 81/122/54
f 71/134/55 72/135/55 80/117/55 79/116/55
f 86/131/49 83/136/49 88/137/49 87/132/49
f 85/130/49 84/138/49 83/136/49 86/131/49
f 80/117/56 72/135/56 88/139/56 83/140/56
f 74/118/57 80/117/57 83/140/57 84/141/57
f 72/126/49 76/124/49 87/132/49 88/142/49
f 78/120/49 74/118/49 84/141/49 85/130/49
o Cylinder.001
v -1.000000 -1.858861 -1.490584
v 1.312254 -1.858861 -0.766320
v -1.000000 -2.912863 -1.054002
v 1.312254 -2.400731 -0.541870
v -1.000000 -3.349445 0.000000
v 1.312254 -2.625181 0.000000
v -1.000000 -2.912863 1.054002
v 1.312254 -2.400731 0.541870
v -1.000000 -1.858861 1.490584
v 1.312254 -1.858861 0.766320
v -1.000000 -0.804859 1.054002
v 1.312254 -1.316991 0.541870
v -1.000000 -0.368277 -0.000000
v 1.312254 -1.092541 -0.000000
v -1.000000 -0.804859 -1.054002
v 1.312254 -1.316990 -0.541870
v 1.000000 -2.912863 -1.054002
v 1.000000 -1.858861 -1.490584
v 1.000000 -3.349445 0.000000
v 1.000000 -2.912863 1.054002
v 1.000000 -1.858861 1.490584
v 1.000000 -0.804859 1.054002
v 1.000000 -0.368277 -0.000000
v 1.000000 -0.804859 -1.054002
v 1.000000 -1.858861 -1.490584
v -1.312254 -1.858861 -0.766320
v 1.000000 -2.912863 -1.054002
v -1.312254 -2.400731 -0.541870
v 1.000000 -3.349445 0.000000
v -1.312254 -2.625181 0.000000
v 1.000000 -2.912863 1.054002
v -1.312254 -2.400731 0.541870
v 1.000000 -1.858861 1.490584
v -1.312254 -1.858860 0.766320
v 1.000000 -0.804859 1.054002
v -1.312254 -1.316991 0.541870
v 1.000000 -0.368277 -0.000000
v -1.312254 -1.092541 -0.000000
v 1.000000 -0.804859 -1.054002
v -1.312254 -1.316990 -0.541870
v -1.000000 -2.912863 -1.054002
v -1.000000 -1.858861 -1.490584
v -1.000000 -3.349445 0.000000
v -1.000000 -2.912863 1.054002
v -1.000000 -1.858861 1.490584
v -1.000000 -0.804859 1.054002
v -1.000000 -0.368277 -0.000000
v -1.000000 -0.804859 -1.054002
vt 1.000000 0.500000
vt 1.000000 1.000000
vt 0.875000 1.000000
vt 0.875000 0.500000
vt 0.750000 1.000000
vt 0.750000 0.500000
vt 0.625000 1.000000
vt 0.625000 0.500000
vt 0.500000 1.000000
vt 0.500000 0.500000
vt 0.375000 1.000000
vt 0.375000 0.500000
vt 0.250000 1.000000
vt 0.250000 0.500000
vt 0.337247 0.337247
vt 0.250000 0.373386
vt 0.162753 0.337247
vt 0.126614 0.250000
vt 0.162753 0.162753
vt 0.250000 0.126614
vt 0.337247 0.162753
vt 0.373386 0.250000
vt 0.125000 1.000000
vt 0.125000 0.500000
vt 0.000000 1.000000
vt 0.000000 0.500000
vt 0.750000 0.490000
vt 0.919706 0.419706
vt 0.990000 0.250000
vt 0.919706 0.080294
vt 0.750000 0.010000
vt 0.580294 0.080294
vt 0.510000 0.250000
vt 0.580294 0.419706
vt 0.419706 0.419706
vt 0.250000 0.490000
vt 0.490000 0.250000
vt 0.419706 0.080294
vt 0.250000 0.010000
vt 0.080294 0.080294
vt 0.010000 0.250000
vt 0.080294 0.419706
vt 1.000000 0.500000
vt 0.875000 0.500000
vt 0.875000 1.000000
vt 1.000000 1.000000
vt 0.750000 0.500000
vt 0.750000 1.000000
vt 0.625000 0.500000
vt 0.625000 1.000000
vt 0.500000 0.500000
vt 0.500000 1.000000
vt 0.375000 0.500000
vt 0.375000 1.000000
vt 0.250000 0.500000
vt 0.250000 1.000000
vt 0.337247 0.337247
vt 0.373386 0.250000
vt 0.337247 0.162753
vt 0.250000 0.126614
vt 0.162753 0.162753
vt 0.126614 0.250000
vt 0.162753 0.337247
vt 0.250000 0.373386
vt 0.125000 0.500000
vt 0.125000 1.000000
vt 0.000000 0.500000
vt 0.000000 1.000000
vt 0.750000 0.490000
vt 0.580294 0.419706
vt 0.510000 0.250000
vt 0.580294 0.080294
vt 0.750000 0.010000
vt 0.919706 0.080294
vt 0.990000 0.250000
vt 0.919706 0.419706
vt 0.250000 0.490000
vt 0.419706 0.419706
vt 0.490000 0.250000
vt 0.419706 0.080294
vt 0.250000 0.010000
vt 0.080294 0.080294
vt 0.010000 0.250000
vt 0.080294 0.419706
vn 0.0000 -0.3827 -0.9239
vn 0.0000 -0.9239 -0.3827
vn 0.0000 -0.9239 0.3827
vn 0.0000 -0.3827 0.9239
vn 0.0000 0.3827 0.9239
vn 0.0000 0.9239 0.3827
vn 1.0000 -0.0000 0.0000
vn 0.0000 0.9239 -0.3827
vn 0.0000 0.3827 -0.9239
vn -1.0000 0.0000 0.0000
vn 0.9062 -0.1618 -0.3907
vn 0.9062 -0.3907 -0.1618
vn 0.9062 -0.3907 0.1618
vn 0.9062 -0.1618 0.3907
vn 0.9062 0.1618 0.3907
vn 0.9062 0.3907 0.1618
vn 0.9062 0.3907 -0.1618
vn 0.9062 0.1618 -0.3907
vn -0.9062 -0.1618 -0.3907
vn -0.9062 -0.3907 -0.1618
vn -0.9062 -0.3907 0.1618
vn -0.9062 -0.1618 0.3907
vn -0.9062 0.1618 0.3907
vn -0.9062 0.3907 0.1618
vn -0.9062 0.3907 -0.1618
vn -0.9062 0.1618 -0.3907
usemtl Material.001
s off
f 89/143/58 106/144/58 105/145/58 91/146/58
f 91/146/59 105/145/59 107/147/59 93/148/59
f 93/148/60 107/147/60 108/149/60 95/150/60
f 95/150/61 108/149/61 109/151/61 97/152/61
f 97/152/62 109/151/62 110/153/62 99/154/62
f 99/154/63 110/153/63 111/155/63 101/156/63
f 92/157/64 90/158/64 104/159/64 102/160/64 100/161/64 98/162/64 96/163/64 94/164/64
f 101/156/65 111/155/65 112/165/65 103/166/65
f 103/166/66 112/165/66 106/167/66 89/168/66
f 89/169/67 91/170/67 93/171/67 95/172/67 97/173/67 99/174/67 101/175/67 103/176/67
f 90/158/68 92/157/68 105/177/68 106/178/68
f 92/157/69 94/164/69 107/179/69 105/177/69
f 94/164/70 96/163/70 108/180/70 107/179/70
f 96/163/71 98/162/71 109/181/71 108/180/71
f 98/162/72 100/161/72 110/182/72 109/181/72
f 100/161/73 102/160/73 111/183/73 110/182/73
f 102/160/74 104/159/74 112/184/74 111/183/74
f 104/159/75 90/158/75 106/178/75 112/184/75
f 113/185/58 115/186/58 129/187/58 130/188/58
f 115/186/59 117/189/59 131/190/59 129/187/59
f 117/189/60 119/191/60 132/192/60 131/190/60
f 119/191/61 121/193/61 133/194/61 132/192/61
f 121/193/62 123/195/62 134/196/62 133/194/62
f 123/195/63 125/197/63 135/198/63 134/196/63
f 116/199/67 118/200/67 120/201/67 122/202/67 124/203/67 126/204/67 128/205/67 114/206/67
f 125/197/65 127/207/65 136/208/65 135/198/65
f 127/207/66 113/209/66 130/210/66 136/208/66
f 113/211/64 127/212/64 125/213/64 123/214/64 121/215/64 119/216/64 117/217/64 115/218/64
f 114/206/76 130/219/76 129/220/76 116/199/76
f 116/199/77 129/220/77 131/221/77 118/200/77
f 118/200/78 131/221/78 132/222/78 120/201/78
f 120/201/79 132/222/79 133/223/79 122/202/79
f 122/202/80 133/223/80 134/224/80 124/203/80
f 124/203/81 134/224/81 135/225/81 126/204/81
f 126/204/82 135/225/82 136/226/82 128/205/82
f 128/205/83 136/226/83 130/219/83 114/206/83
